<svg viewBox="0 0 64 64" xmlns="http://www.w3.org/2000/svg">
  <defs>
    <radialGradient id="haloLight" cx="50%" cy="45%" r="55%">
      <stop offset="10%" stop-color="rgba(20, 184, 166, 0.22)" stop-opacity="0.7" />
      <stop offset="70%" stop-color="rgba(14, 116, 144, 0.18)" stop-opacity="0.4" />
      <stop offset="100%" stop-color="transparent" />
    </radialGradient>
    <linearGradient id="ringLight" x1="28%" y1="0%" x2="78%" y2="98%">
      <stop offset="0%" stop-color="#1e293b" />
      <stop offset="100%" stop-color="#0f172a" />
    </linearGradient>
    <linearGradient id="accentLight" x1="0%" y1="80%" x2="100%" y2="0%">
      <stop offset="0%" stop-color="#0f766e" />
      <stop offset="60%" stop-color="#14b8a6" />
      <stop offset="100%" stop-color="#f59e0b" />
    </linearGradient>
    <radialGradient id="innerLight" cx="50%" cy="35%" r="65%">
      <stop offset="0%" stop-color="#ffffff" stop-opacity="0.92" />
      <stop offset="60%" stop-color="#ffffff" stop-opacity="0.78" />
      <stop offset="100%" stop-color="#f8fafc" stop-opacity="0.85" />
    </radialGradient>
  </defs>

  <circle cx="32" cy="32" r="30" fill="url(#haloLight)" />
  <circle cx="32" cy="32" r="26.5" fill="#f8fafc" stroke="url(#ringLight)" stroke-width="1.6" />
  <circle cx="32" cy="32" r="22" fill="url(#innerLight)" stroke="rgba(15, 23, 42, 0.12)" stroke-width="0.6" />

  <path d="M17 25c3-8 10-13 15-13s11.5 5.2 15 13" stroke="#475569" stroke-width="1.4" stroke-linecap="round" fill="none" opacity="0.55" />

  <path d="M18 40 L26.5 28.5 L33.5 34 L46 22" stroke="url(#accentLight)" stroke-width="2.8" stroke-linecap="round" stroke-linejoin="round" fill="none" />
  <circle cx="18" cy="40" r="2.3" fill="#f97316" opacity="0.9" />
  <circle cx="26.5" cy="28.5" r="2.3" fill="#f97316" opacity="0.9" />
  <circle cx="33.5" cy="34" r="2.3" fill="#f97316" opacity="0.9" />
  <circle cx="46" cy="22" r="2.3" fill="#f97316" opacity="0.9" />

  <circle cx="24" cy="34" r="6" fill="#ffffff" stroke="#0f766e" stroke-width="2.2" />
  <circle cx="40" cy="34" r="6" fill="#ffffff" stroke="#0f766e" stroke-width="2.2" />
  <path d="M30 33.7h4" stroke="#14b8a6" stroke-width="2" stroke-linecap="round" />
  <path d="M18.5 34c-1.2 0-2.2 0.8-2.2 2" stroke="#475569" stroke-width="1.6" stroke-linecap="round" fill="none" opacity="0.4" />
  <path d="M45.5 34c1.2 0 2.2 0.8 2.2 2" stroke="#475569" stroke-width="1.6" stroke-linecap="round" fill="none" opacity="0.4" />

  <path d="M42 17l1.1 2.3 2.3 1.1-2.3 1.1-1.1 2.3-1.1-2.3-2.3-1.1 2.3-1.1z" fill="#f59e0b" opacity="0.85" />
</svg>

